<?xml version="1.0" encoding="utf-8"?>
<!-- Generator: Adobe Illustrator 18.1.1, SVG Export Plug-In . SVG Version: 6.00 Build 0)  -->
<svg version="1.2" baseProfile="tiny" xmlns="http://www.w3.org/2000/svg" xmlns:xlink="http://www.w3.org/1999/xlink" x="0px"
	 y="0px" viewBox="0 0 408 466.5" xml:space="preserve">
<g id="concept_x23_1" display="none">
	<g id="PSNA" display="inline">
		<g>
			<path d="M-28.7,153.6c11.8,5.3,20.9,12.9,27.3,22.7c6.4,9.9,9.6,21.4,9.6,34.8c0,13.3-3.2,24.9-9.6,34.6
				c-6.4,9.8-15.5,17.3-27.3,22.6c-11.8,5.3-25.7,8-41.7,8h-30.8v46.3h-54.3c0,0-1.3-82.9,4.2-92.9c5.6-10,27.3-19,27.3-19
				s-20.2-7.7-27.3-18c-7.1-10.3-3.1-47-3.1-47h84C-54.4,145.7-40.5,148.3-28.7,153.6z M-50.2,230.2c5.2-4.5,7.8-10.8,7.8-19.1
				c0-8.3-2.6-14.7-7.8-19.2c-5.2-4.5-13-6.8-23.3-6.8h-27.8v51.8h27.8C-63.1,236.9-55.4,234.7-50.2,230.2z"/>
		</g>
		<text transform="matrix(1 0 0 1 18.2295 321.7558)" font-family="'Montserrat-ExtraBold'" font-size="246.7984">S</text>
		<text transform="matrix(1 0 0 1 177.9053 321.7558)" font-family="'Montserrat-ExtraBold'" font-size="246.7984">&amp;</text>
		<text transform="matrix(1 0 0 1 364.2354 321.7558)" font-family="'Montserrat-ExtraBold'" font-size="246.7984">A</text>
	</g>
</g>
<g id="concept_x23_2">
	<g id="main_logo" display="none">
		<path display="inline" fill="#D0B47D" d="M93.6,383c-7.3,0-14.7,0-22,0c-1.1-2.1,0.3-4,1-5.7c4.5-11.1,9-22.2,13.6-33.3
			c0.4-1,0.9-1.8,1.9-2.2c2.4-1,0.4-3.1,1.2-4.5c3.6-11.6,8.5-22.7,12.9-34c2.4-6.2,5-12.4,7.4-18.6c4.1-10.6,8.1-21.2,12.5-31.6
			c2.1-5,3.7-10.1,6.1-15c0.5-1,0.8-2.5,2.4-1c0,16.5,0,33.1,0,49.6c-0.4,3.9-3.6,7.1-3.1,11.2c0.1,0.6,0,1.4-0.4,1.9
			c-2.6,2.7-2.9,6.7-5.1,9.6c-0.8,1-0.8,2-0.6,3.1c0.4,1.4,0.4,2.6-1.6,2.6c-0.6,0-1.2,0.4-1.3,0.9c-1.2,3.2-3.6,6.2-2.6,10
			c0.2,0.8,0.5,1.5-0.4,2.2c-2.1,1.6-2.6,3.9-2.6,6.3c0,1.4,0,2.9-1.2,3.4c-2.7,1-2.6,3.4-3.1,5.4c-1.2,4.6-3.1,8.9-5.1,13.2
			c-0.2,0.5-0.9,1-0.7,1.4c1,3.2-1.6,4.5-3.2,6.3c-1.1,1.2-1.6,2.3-1.1,3.9c0.6,1.9,0.5,3.8-1.2,5.3c-0.8,0.7-0.9,1.8-0.9,2.8
			c0,0.7,0.1,1.8-0.5,2.1C93.6,379.3,93.8,381.2,93.6,383z"/>
		<path display="inline" fill="#D4B981" d="M89.3,333c0-19.1,0-38.2,0-57.3c0.3-2.5,1.4-4.8,1.9-7.3c0.5-2.2,1.4-4.5,2.5-6.5
			c2.4-4.3,4-8.8,5.8-13.3c4-9.7,7.7-19.4,11.7-29.1c3.1-7.5,5.8-15.2,9-22.7c2.7-6.3,4.6-12.9,7.7-19c0.4-0.9,0.2-1.8,0.5-2.7
			c0.3-1.1,0.7-2.4,2.1-0.8c0,16.9,0,33.8,0,50.7c-0.6,0.7-0.4,1.6-0.4,2.4c0,2.7-0.6,5.2-2.6,7.3c-0.5,0.5-1.1,1.1-1.1,1.9
			c-0.4,5.1-2.9,9.5-4.8,14.2c-1.4,3.5-2.4,7.3-4,10.7c-1.3,2.7-2.8,5.4-3.6,8.2c-1.4,4.9-4.7,8.9-5.4,14.1c-0.3,2.3-1.9,4.6-3,6.9
			c-1.3,2.9-1.8,6.1-3.4,8.9c-1.9,3.5-2.2,7.7-4.7,11c-1.3,1.8-1.7,4-2.5,6.1c-1.2,3.1-1.5,6.6-3.5,9.5c-0.7,1-0.7,2.5-0.5,3.7
			c0.2,1,0.2,2.1-0.1,3C90.6,333.7,90,334.2,89.3,333z"/>
		<path display="inline" fill="#D8BE85" d="M89.3,270.2c0-17.3,0-34.5,0-51.8c3.2-3.4,4.4-7.8,5.6-12.1c1.2-4.5,3.3-8.6,5.1-12.7
			c2.1-4.7,3.2-9.7,5.6-14.3c2.5-4.7,4-9.8,6-14.7c1.9-4.8,4.1-9.6,5.7-14.5c0.6-1.7-0.5-3.2-0.2-4.9c0.3-2,2.9-1.4,3.5-3.2
			c1.6-4.9,4.1-9.4,5.6-14.3c0.2-0.6,0.4-1.2,0.2-1.9c-0.6-2.1,0-4,0.8-5.9c0.6-1.4,1.3-2.7,1.4-4.4c0-1.1,0.6-2.4,2.1-0.8
			c0,17.3,0,34.5,0,51.8c-1.2,5.9-3.3,11.4-6.6,16.5c0.4,3-2.4,5-2.6,7.9c-0.2,2.9-1.9,5.3-3,7.9c-1.6,3.8-3,7.7-4.5,11.5
			c-1.7,4.1-3.7,8.1-4.8,12.5c-0.6,2.3-2.6,3.9-3,6.4c-0.7,4.8-5.2,8.1-5.6,12.9c-0.6,6.1-4.2,11-5.9,16.7c-1.1,3.7-3.4,7-3.4,11.1
			C91.1,270.7,90.2,271.5,89.3,270.2z"/>
		<path display="inline" fill="#DCC389" d="M89.3,210.7c0-16.9,0-33.8,0-50.7c2.4-6.8,5.1-13.4,7.7-20.1c1.8-4.4,3.5-8.9,5.3-13.4
			c2.7-7,5-14.1,8.1-20.9c1.2-2.8,2.3-5.6,3.4-8.4c0.5-1.2,1.1-2.3,2-3.3c4.5,0,9,0.1,13.5,0c1.2,0,1.4,0.2,1.4,1.4
			c-0.1,3.6,0,7.2,0,10.7c-1,6.1-3.3,11.8-5.9,17.3c-2.7,5.7-4.4,11.7-7,17.4c-3.3,7.3-5.7,14.9-8.4,22.4c-0.8,2.2-2.3,4.2-2.7,6.4
			c-1,4.7-3.9,8.3-5.5,12.7c-2,5.3-4,10.7-6.5,15.9c-1.2,2.5-2.7,5.4-2.3,8.6c0.1,1.4-0.7,2.6-1.2,3.9
			C90.7,211.4,89.9,211.9,89.3,210.7z"/>
		<path display="inline" fill="#CCAF79" d="M130.5,383.1c-11.6,0-23.1-0.1-34.7-0.1c-0.4-2.4,1.1-4.2,1.9-6.2c4-10,8-20.1,12-30.1
			c4-10,8-20.1,12-30.1c2-5,3.7-10.2,5.8-15.1c0.5-1.1,0.8-3.2,2.9-1.6C130.5,327.6,130.5,355.4,130.5,383.1z"/>
		<path display="inline" fill="#E8D095" d="M62.7,135.1c-7.5,0-15.1,0-22.6,0c-1.5-2-0.8-3.9,0.5-5.5c1.7-1.9,2.6-4.1,3.2-6.6
			c0.5-2.1,1.2-4,2.4-5.7c1.1-1.6,1.4-3.5,1.3-5.5c-0.3-5.2,2.2-9.3,5.2-13.2c0.6-0.7,1.2-1.3,1.1-2.4c-0.1-1,0.2-1.8,1-2.4
			c8.1,0,16.2,0,24.2,0c1,0.3,1.4,0.7,1,2c-1.5,4.5-3.4,8.9-5.3,13.2c-0.8,1.9-1.4,3.9-2.3,5.5c-2.6,4.4-2.6,9.6-5.5,13.8
			c-0.5,0.7-0.6,1.5-0.8,2.3C65.9,132.7,64.8,134.3,62.7,135.1z"/>
		<path display="inline" fill="#E0C78D" d="M89.3,155.6c0-6-0.1-12.1-0.1-18.1c0-1.8-0.4-2.4-2.2-2.3c-1.8,0.1-3.7,0-5.5-0.1
			c-0.5-0.7-0.9-1.7-0.4-2.3c1.8-2.4,1.5-5.6,3.5-7.9c0.4-0.5,0.5-1.1,0.8-1.7c1.4-3.3,0.8-7.5,4.2-10c0.1-0.1,0.2-0.3,0.2-0.5
			c-0.2-4.5,2.8-7.8,4.3-11.6c0.9-2.3,0.5-5,1.7-7.2c5.5,0,11,0,16.5,0c1.2,2.7,1.1,2.9-1.2,5.5c-0.2,0.2-0.1,0.5-0.2,0.8
			c-2.1,8.7-5.6,17-9.8,24.9c-0.6,1.2-1,2.6-1.2,3.9c-0.2,1.1-0.4,2.2-1,3.1c-2.3,4-3.4,8.4-5.2,12.5c-1.4,3.4-1.8,6.8-2.8,10.2
			C90.7,155.9,90.6,157.1,89.3,155.6z"/>
		<path display="inline" fill="#E4CB91" d="M62.7,135.1c2.1-1.9,2.1-4.8,3.5-7.1c1.4-2.4,1.5-5.5,3.5-7.7c0.3-0.3-0.3-1.2-0.1-1.8
			c0.3-1.2-0.9-3,1.6-3.2c0.8,0,0.8-0.8,0.7-1.6c-0.1-1.7-1.1-3.9,2-4.5c0.3-0.1,0.9-2.4,1.4-3.7c1-3.1,3.1-5.9,3.2-9.3
			c0-0.8,2.2-1,0.7-2.3c5.1,0,10.3,0,15.4,0c0.4,0.6,0.7,1.5,0.4,2.1c-1.2,2.2-1.4,4.7-2.4,6.9c-3.7,8.5-7.3,17-10.6,25.6
			c-0.8,2.2-1.1,4.7-2.8,6.6C73.7,135.1,68.2,135.1,62.7,135.1z"/>
		<path display="inline" fill="#DAC087" d="M89.3,210.7c0.5,0.2,1.1,0.5,1.3-0.4c0.4-2.1,0.8-4.2,0.9-6.3c0.1-1-0.5-1.9,1-2.1
			c0.1,0,0.2-0.3,0.2-0.5c-0.2-4.9,4.3-8.2,4.4-12.9c0.1-2.6,2.5-3.6,2.8-5.9c0.2-1.7,1.6-3.1,1.2-5c-0.1-0.6,0.2-0.7,0.7-0.9
			c1.2-0.5,1.8-2.1,1.7-2.7c-0.6-2.2,0.6-1.7,2.1-1.2c-2.3-2.2-0.5-3.7,0.4-5c0.9-1.4,1.2-2.8,1.7-4.2c1-2.8,1.7-5.9,3.1-8.6
			c1.1-2.2,2.7-4.7,2.7-7c0-2.2,2.5-3.5,1.4-5.7c3-1.9,2.6-5.3,3.8-8.1c1.1-2.6,2.7-5,3-8.1c0.1-1.2,1.7-3.1,2.5-4.8
			c2.3-4.5,3.7-9.3,5.4-14c0.2-0.6,0.3-1,0.9-1.3c0,2.9,0,5.9,0,8.8c-0.6-0.2-1.7-0.4-1.3,0.5c1.2,2.9-1.4,4.6-2,6.9
			c-0.2,0.6-0.5,1.4-0.2,1.8c1.5,2.9-0.4,5.2-1.2,7.7c-1.2,3.8-3.4,7.3-4.4,11.2c-0.3,1-0.7,2-2.3,1.6c-1.2-0.4-1.8,0.5-1.1,1.6
			c2,3.2-0.5,5.7-1.2,8.5c-0.9,3.4-3.4,6.2-3.7,9.9c-0.1,1.6-2.9,2.2-1.8,4.4c-2.6,2.4-2.2,6.1-4.1,8.9c-2.2,3.4-3.2,7.5-4.4,11.4
			c-0.5,1.9-2,3.4-2.3,5c-0.7,4-3.6,6.9-4.3,10.8c-0.6,3.1-1.7,5.9-3.1,8.7c-0.7,1.5-0.8,3.3-2.4,4.4c-0.5,0.4-0.9,0.5-1.5,0.2
			C89.3,215.8,89.3,213.2,89.3,210.7z"/>
		<path display="inline" fill="#CCAF79" d="M-24.9,127.5c0.4-0.3,0.2-1.5,1.2-0.8c0.3,0.2,0.5,0.5,0.9,0.4c-0.5-1.5,2.9-1.6,1.1-3.5
			c-0.2-0.2-0.3-0.7-0.3-0.7c3.2-2.3,1.5-5.6,1.9-8.5c1.7-0.7,3.3-1.3,3.1-3.7c-0.1-1.1,0.3-2.4,1.4-3.1c0.3-0.2,0.5-0.6,0.5-0.9
			c0.3-4.5,4.7-7.3,4.7-11.9c0-0.4,0.5-0.5,0.8-0.7c3.5,0,7,0,10.5,0c1.3,1.3,1.2,2.7,0.4,4.3c-3.3,6.3-5.6,13.1-8.2,19.8
			c-1.1,3-2.7,5.9-3.5,8.9c-0.8,3.1-3.2,5.2-3.6,8.3c-4,0-8.1,0-12.1,0c0-0.2,0-0.3,0-0.5C-25.1,132.3-23.9,130.1-24.9,127.5z"/>
		<path display="inline" fill="#CFB27B" d="M130.5,299.9c-2.3-0.4-1.9,1.8-2.4,2.8c-1.8,4.3-3.4,8.7-5,13.1
			c-1.6,4.5-3.6,8.8-5.2,13.3c-1,2.8-2.2,5.6-3.4,8.4c-1.8,4.6-3.7,9.2-5.5,13.8c-1.1,2.9-2.3,5.8-3.5,8.6c-1.9,4.4-3.2,9-5.2,13.3
			c-1.6,3.3-2.1,7.1-4.6,9.9c-0.7,0-1.5,0-2.2,0c-0.7-1.2-1.6-2.4-0.9-4c0.2-0.3,0.3-1,0.4-0.9c4.7,0.5,0.8-3.3,2.2-4.5
			c0.1-0.1-0.4-0.7,0.2-1.1c2.4-1.4,2.7-2.4,1.5-5.1c-0.5-1.1-0.5-2,0.5-2.7c1.7-1.1,2.1-3.4,4.2-4.1c1-0.3-1.1-1-0.4-2.1
			c0.5-0.8-0.3-2.1,1.3-2.6c0.5-0.2,1.3-1.6,1-2.6c-0.4-1.1,0.5-1.3,0.8-1.9c1.2-2.4,2.7-4.9,2.9-7.5c0.2-2.2,1.4-3.9,1.6-6
			c0-0.2,0.6-0.6,0.8-0.6c3.1,0.3,2.4-1.7,1.9-3.3c-0.4-1.4-0.9-2.4,1.1-2.5c0.1,0,0.3-0.2,0.3-0.4c0.3-0.8-2.1-1.5-0.1-2.2
			c1.3-0.5,0.3-1.7,1.1-2.3c0.4,0.3,0.8,0.6,1.2,0.9c0.3-0.7-0.1-1.3-0.4-1.6c-1.1-1-1.3-2.3-0.5-3.1c1.8-1.9,1.9-4.3,2.4-6.5
			c0.4-1.8,2.3-1.6,2.8-3c0.4,0.3,0.8,0.6,1.3,0.9c0.3-0.8-0.5-1.2-0.5-1.8c-0.2-1.5-1-3.2,1.2-3.9c0.6-0.2,0.9-1,1.1-1.8
			c0.5-2.2,0.6-4.4,2.9-6c1.8-1.3,1.5-4.2,0.9-6.1c-0.5-1.7,0-2.1,1-2.8c1.2-0.8,2.2-2.1,1.6-3.4c-0.9-2.1,0.8-1.5,1.5-1.9
			C130.5,291.1,130.5,295.5,130.5,299.9z"/>
		<path display="inline" fill="#D4B981" d="M4.9,135.1c-3.3,0-6.6,0-9.9,0c-1.5-2.4,0-4.8,0.6-6.8c0.7-2.3,1.4-4.8,2.9-7
			c1.6-2.4,2.5-5.2,3.6-7.9c0.9-2.3,1.8-4.6,2.7-6.8C5.8,104,7,101.5,8.3,99c0.5-0.9,1-1.8,0.9-2.8c-0.1-1.3,0.7-1.9,1.8-2.4
			c3.3,0,6.6,0,9.9,0c1,3.7,0.5,5.3-2.4,7.3c-0.5,0.3-0.5,0.8-0.5,1.2c-0.5,3.7-1.5,7.2-3.3,10.6c-1.3,2.4-2.1,5.1-3.8,7.4
			c-1.6,2.4-1.9,5.5-2.7,8.3c-0.4,1.5-1.3,2.8-1.3,4.4C6.9,134.3,5.5,134.4,4.9,135.1z"/>
		<path display="inline" fill="#D3B77F" d="M89.3,333c1.8,0.6,1.3-0.7,1.1-1.5c-0.5-2.4-0.8-4.7,0.7-7c2.7-4.3,2.7-9.7,5.4-14.1
			c1.5-2.5,3.2-4.8,3-8c0-0.6,0.5-1,1-1.1c0.5-0.1,1.1-0.4,1-0.8c-1-3.6,3.2-5.8,2.4-9.3c2.6-1.5,0.5-5.8,4-6.8
			c0.1,0,0.3-0.5,0.3-0.7c0-3.4,1.3-6.8,4.1-10.2c0.2-0.2,0.4-0.6,0.3-0.7c-2.3-2.7,1.4-3.7,1.8-5.7c0.2-0.9,0.7-2,1-3.1
			c0.2-0.7-1.1-2.2,1.1-1.4c0.1,0,0.5-0.3,0.5-0.5c0.5-3.3,2.6-6.1,3.2-9.2c0.9-4.3,3.5-7.7,4.6-11.8c0.2-0.6,0.7-1.3,0.5-1.8
			c-1.1-3.4,1.6-5.2,3.1-7.4c0.5-0.8,1.7-1,0.1-1.8c-0.1-0.1-0.2-0.3-0.3-0.4c2.4-0.7,0.7-3.6,2.4-4.7c0,4,0,8.1,0,12.1
			c-0.5-0.2-1.1-0.5-1.3,0.3c-1,3.7-3,7-4.1,10.6c-1.2,3.8-3,7.2-4.4,10.9c-1.4,3.8-3,7.6-4.5,11.3c-1.2,2.9-2.9,5.8-3.4,8.9
			c-0.7,4-3.1,7-4.3,10.7c-2,6.3-4.9,12.3-7.1,18.5c-1,2.9-2.2,5.8-3.5,8.6c-1.8,3.9-3.5,8-4.9,12c-1,3-1.9,5.9-3.7,8.4
			C89.3,335.9,89.3,334.4,89.3,333z"/>
		<path display="inline" fill="#D0B47D" d="M10.9,93.8c0.1,0.8-1.2,0.8-1,1.5c0.8,3.5-0.9,5.9-3.3,8c-0.1,0.1-0.1,0.5-0.1,0.8
			c0.1,2.8-2.3,4.6-2.4,7.4c0,1.3-1.5,4-1.5,4.8c0,0.2,0,0.5,0,0.5c-3.5,0.4-1,5.3-4.4,5.9c-0.5,0.1-0.2,1-0.2,1.5
			c0,1.2-0.2,2.3-1.2,3.2c-0.6,0.5-2.1,1.3-0.1,2.1c0.1,0.1,0.2,0.7,0.2,0.7c-2.7,0.8-0.6,3.6-2,4.8c-2.9,0-5.9,0-8.8,0
			c-0.4-2.5-0.8-4.9,2.4-6c0.2-0.1,0.5-0.6,0.5-0.9c-0.1-1.8,0.8-2.1,0.8-4c0.1-2.9,2.2-4.8,2.7-7.6c0.6-3,1.8-6.1,3.3-8.9
			c1.2-2.3,1.9-4.9,3.1-7.2c0.3-0.6,0.6-1.2,1.1-1.8C1,97.4,1.4,95.6,1,93.8C4.3,93.8,7.6,93.8,10.9,93.8z"/>
		<path display="inline" fill="#E4CB91" d="M55,93.8c-0.9,1.5,1.4,3.3-0.5,4.5c-1.6,1.1-2.4,2.7-3.2,4.3c-1.5,2.8-3.1,5.6-2.7,9.1
			c0.3,2.9-0.8,5.6-2.9,8.1c-0.9,1-1,3.4-1.4,5.2c-0.3,1.4-0.6,2.6-1.8,3.6c-1.8,1.6-2.3,3.9-2.4,6.3c-2.9,0-5.9,0-8.8,0
			c-1.6-0.7-1.4-2-0.8-3.2c2.8-5.3,4.4-11,6.8-16.4c1.7-3.8,3.6-7.7,4.5-11.9c0.7-3.5,2.5-6.6,4.4-9.6C49.1,93.8,52.1,93.8,55,93.8z
			"/>
		<path display="inline" fill="#DCC389" d="M23.6,135.1c-3.3,0-6.6,0-9.9,0c-1.5-0.6-1.9-1.6-0.7-2.7c2.7-2.6,3.3-5.9,3.7-9.4
			c0-0.5,0.3-0.9,0.5-1.3c1.6-3,2.8-6.3,4.3-9.4c0.5-1.1,0.7-2.3,0.9-3.4c1.1-4.8,3.9-9,5.6-13.6c0.4-1,1.5-0.9,2.2-1.4
			c2.9,0,5.9,0,8.8,0c0.6,1.4-0.1,2.6-0.8,3.6c-2.7,4.2-4.2,8.9-5.4,13.6c-0.7,2.9-2.2,5.4-3.1,8.1c-1.1,3.3-2.3,6.7-3.7,9.9
			c-0.3,0.6-0.5,1.2-0.8,1.7c-0.6,1-1.2,1.8-2.4,2.1C23.8,133.3,24.1,134,23.6,135.1z"/>
		<path display="inline" fill="#D8BE85" d="M30.2,93.8c-1.7,2.6-3.2,5.3-3.8,8.5c0,0.3,0.1,0.7,0,0.8c-3.3,2-2.6,5.4-3.4,8.4
			c-0.2,0.7-0.2,2.7-2,3.1c-0.9,0.2-0.3,0.8-0.1,1.3c0.2,0.7,0.3,1.5-0.3,2c-2.2,1.9-2.3,4.6-3.2,7.2c-0.6,1.8,0.6,4.3-1.6,5.6
			c-0.6,0.4,0.6,1.1,0.2,1.6c-1.1,1-1.2-1.4-1.7-0.4c-0.4,0.9-2.7,1.7-0.7,3.2c-2.9,0-5.9,0-8.8,0c-0.1-0.3-0.2-0.7-0.2-0.8
			c2.4-1,1.7-2.4,0.3-4c0.8-0.5,3.2,0.8,1.8-1.7c-0.4-0.6,1-1.8,1.2-3.1c0.5-2.9,1.3-6.5,3.3-8.1c1.8-1.4,1.5-1.9,0.9-3.3
			c2.5-0.5,0.9-4.2,3.5-4.7c0.5-0.1,0.6-0.5,0.5-0.8c-0.6-2.4,1-4.5,1-6.8c0-0.6-0.2-2.3,1.8-1.4c0.7,0.3,1.8-2.6,1.4-3.8
			c-0.5-1.4,0.2-1.9,0.6-2.8C24,93.8,27.1,93.8,30.2,93.8z"/>
		<path display="inline" fill="#D6BC84" d="M89.3,270.2c1.8,0.6,1.2-0.6,1.1-1.5c-0.3-2.8,0.8-5.1,2-7.5c0.8-1.6,1.7-3.3,2-5
			c0.8-3.6,3.2-6.5,4-9.9c0.5-2.1,0.7-4.3,1.5-6.3c1.1-2.7,2-5.5,4.1-7.5c0.5-0.5,1.1-1,0.4-1.8c-0.9-1-0.6-1.6,0.6-2
			c0.2-0.1,0.5-0.2,0.7-0.3c-2.1-3.1,2.9-3.4,2.4-5.8c-0.6-2.6,1.1-4.7,2.1-6.3c1.7-2.7,1.1-6.3,3.9-8.6c1.4-1.2,0.3-3.9,1.8-5.5
			c2.3-2.5,1.7-6.3,4-9c0.6-0.8,1.5-3,1.1-4.9c-0.4-1.9,1.2-2.4,2.5-2.9c-0.2-1.2-1.6-0.4-2-1.2c1.4-1.4,2.3-3.1,3.4-4.6
			c1.6-2.1,1.2-4.9,3.3-6.9c1-1,0.5-3.6,1.6-5.2c0.2-0.3,0.5-0.5,0.8-0.8c0,2.6,0,5.1,0,7.7c-0.9-0.4-1.8,0-1.3,0.8
			c1.4,2-0.3,4.2-0.9,4.7c-1.5,1.2-0.6,3.2-1,3.4c-2.2,0.8-1.2,3.1-2.5,4.4c-1.2,1.2-1,3.2-1.6,4.8c-1.5,4.3-4.7,7.9-4.7,12.7
			c-2.8,1.4-2.4,4.7-3.4,6.9c-1.2,2.7-2.4,5.7-3.4,8.7c-0.7,2.2-1.1,5-2.3,6.3c-1.9,2.1-0.9,5.2-3.4,6.8c-0.6,0.4-0.3,1.7-0.5,2.6
			c-0.5,2.6-1.8,5.2-2.8,7.3c-1,2.1-2.2,4.6-2.8,6.6c-1,3.4-3.1,6.2-3.9,9.8c-0.4,1.9-2.4,3.8-2,6.3c-3.2,0.7-1.3,3.7-2.2,4.8
			c-1.1,1.4-0.8,3.6-2.6,4.4C89.3,273.8,89.3,272,89.3,270.2z"/>
		<path display="inline" fill="#E0C78D" d="M23.6,135.1c-0.7-1.3-0.9-2.3,0.1-4c1.7-2.7,3.4-5.7,3.3-9.2c0-0.7,0.6-0.8,0.9-1.2
			c0.8-1.3,2.1-2.4,1.4-4.1c-0.4-0.9,0.6-1,0.9-1.5c0.7-1.4,2.3-2.5,1.2-4.4c-0.4-0.7-0.1-1,0.6-1.1c0.7-0.1,1-0.6,0.8-1.2
			c-0.5-1.1-0.7-1.8,0.8-2.4c0.9-0.4-0.9-1.1-0.6-2.2c1.4,0.3,2.8,0.4,1.6-1.7c2.1-0.7-0.7-4.3,2.7-4.5c0.3,0,0.7-2.6,1.8-3.6
			c2.4,0,4.8,0,7.2,0c0.2,3-1.4,5.5-2.8,7.8c-0.7,1.2-0.3,2.2-0.7,3.2c-0.9,2.9-2.3,5.5-3.5,8.3c-2.7,6.5-4.8,13.4-8.1,19.7
			c-0.4,0.9-0.2,1.6,0.2,2.3C28.7,135.1,26.2,135.1,23.6,135.1z"/>
		<path display="inline" fill="#DEC68C" d="M89.3,155.6c0.4,0.2,1.2,0.4,1.1-0.1c-0.7-3,1.8-5.7,0.9-8.7c0-0.2,0-0.5,0-0.5
			c2.6-1,1.1-4.2,2.9-5.6c0.3-0.3,0.8-0.8,0.7-1.1c-0.4-3.5,2.3-5.6,3.6-8.3c0.7-1.4,0.4-2.8,0.7-4.2c0.9-3.6,3.8-6,4.7-9.6
			c1.2-4.8,3.3-9.2,5.6-13.6c0.7-1.4,0.1-3.3,0.9-5c1.1-2.4,0.7,1.4,0.9,0.9c1.2-2.3,0.1-4.1,0.9-5.7c1.1,0,2.2,0,3.3,0
			c0.4,1.6-0.5,3.2-1.1,4.2c-2.4,4.6-4,9.5-5.8,14.3c-1.4,3.5-2.8,7.1-3.9,10.8c-0.8,2.8-2.4,5.8-3.5,8.7c-1,2.5-3.2,4.7-2.8,7.8
			c0.1,0.8-1,0.8-1.1,1.4c-0.8,3.3-2.1,6.6-3.5,9.5c-1.5,3.1-1.6,7-4.6,9.4C89.3,158.5,89.3,157,89.3,155.6z"/>
		<path display="inline" fill="#E2CA90" d="M79.2,135.1c-0.3-2.5,1.1-4.5,1.7-6.6c0.7-2.4,2-4.7,2.7-7.1c0.6-1.8,1.5-3.9,2.5-5.7
			c1.4-2.7,2.9-5.7,3.4-8.7c0.2-1.4,1.2-1.9,1.5-3c1.1-3.4,2.4-6.7,3.6-10.1c0.4,0,0.7,0,1.1,0c0.3,1.2,1.8,2.5-0.4,3.4
			c-0.1,0-0.2,0.4-0.2,0.4c2,3-1.7,4.4-1.8,6.6c-0.2,3-3.6,4.9-2.5,8.2c0.3,1-0.5,1.4-1.1,1.9c-0.9,0.7-1.8,3.1-1.3,4.1
			c0.3,0.7-0.1,0.8-0.4,1.1c-1.4,1-2,2.3-1.6,4c0.1,0.3,0.1,0.9,0,1c-3.2,2.8-3.4,6.9-4.9,10.5C80.7,135.1,80,135.1,79.2,135.1z"/>
		<path display="inline" fill="#E8D095" d="M6.6,275.7c0-18.9,0-37.8,0-56.8c1.2-4.3,1.8-8.7,4.3-12.5c0.6-0.9,0.2-1.9,0.1-2.9
			c-0.1-1.3-0.4-2.8,1.4-3.4c0.1,0,0.2,0.1,0.2,0.1c0.1,0.1,0.1,0.1,0.2,0.2c0.5-1.3,1.5-2.4,2-3.7c1.8-4.6,3.4-9.2,5.6-13.6
			c0.6-1.1,0.6-2.5,0.9-3.7c0.5-1.1,0.8-2.3,2.2-2.8c7.5,0,15.1,0,22.6,0c1.6,1.7,0.5,3.5-0.2,4.9c-2.1,4.1-2.9,8.6-4.8,12.7
			c-1,2.3-1.9,4.5-4.4,5.6c-1.8,5-5.2,9.3-6.8,14.4c-0.5,1.5-1.2,3-0.4,4.7c0.5,2.3,0.1,4.5-0.9,6.7c-2.5,5.5-4.8,11-6.9,16.6
			c-1,2.7-1.8,5.7-3.2,8.1c-2.6,4.3-3.4,9.2-5.4,13.7c-1.2,2.7-2.7,5.3-3.3,8.4C9.6,273.8,8.9,275.7,6.6,275.7z"/>
		<path display="inline" fill="#E4CB91" d="M6.6,275.7c1-1.4,2.9-2.4,2-4.8c-0.1-0.4,1-1.1,1.2-1.7c1.7-5,4.8-9.6,5.2-15.1
			c0.1-1,1.4-1,1.8-2c1.3-3.7,2.9-7.4,4.3-11.1c2.2-5.8,4.8-11.4,7-17.1c0.7-1.8,0-3.5,1-5c2.3-5.7,4.4-11.5,6.9-17.1
			c0.4-0.9,1-1.8,0.2-2.8c2.5-1,3.1-3.2,3.9-5.5c0.9-2.4,2.3-4.8,2.7-7.1c0.7-3.5,3.4-6.2,3.3-9.9c2.1-0.5,1.6,1,1.6,2.1
			c0,11.4,0,22.8,0,34.2c0,2.9-0.1,5.9-0.1,8.8c-0.3,2.2-0.8,4.1-3.7,3.7c-1.1,0.1-1.2,0.9-1.2,1.8c0.1,1.9-0.3,3.6-1.6,5
			c-1.6,1.7-2.1,4-2.3,6.1c-0.4,2.8-1.7,4.9-3.2,7.1c-1.2,1.7-2,3.5-2.4,5.5c-1,4.2-3.7,7.8-4.6,12c-1.1,4.6-3.9,8.6-4.6,13.4
			c-0.3,2.3-2.2,4.1-3.1,6.3c-1.8,4.1-3.2,8.4-4.7,12.6c-0.7,2-1.3,4-3.1,5.4c-6.6,0.4-6.6,0.4-6.6-6.3
			C6.5,287.9,6.6,281.8,6.6,275.7z"/>
		<path display="inline" fill="#E0C78D" d="M44,224.4c1.8-0.1,3.3-0.4,2.8-2.9c0.3,0,0.7,0.1,1,0.1c0,12.9,0,25.7,0,38.6
			c-0.9,2.7-2.6,5.2-2.7,8.1c0,0.3-0.1,0.7-0.3,0.7c-3.8,1.1-2.2,4.7-3,7c-1.2,3.2-1.3,6.8-4.3,9.2c-0.6,0.5-0.5,1.3-0.6,2
			c-0.5,3-1.5,5.8-3.3,8.2c-1.1,1.5-0.3,3.5-1.6,4.8c-5.5,0-11,0-16.5,0c-0.6-0.8-0.5-1.5,0-2.3c1.5-2.7,2.3-5.7,3.2-8.7
			c0.9-2.9,2.7-5.3,3.8-8.1c0.6-1.5,1.2-3.1,1.7-4.6c1-3.5,2.9-6.7,4-10.1c1.8-6.2,5.5-11.6,7.2-17.9c0.6-2.1,1.9-4.1,2.8-6.2
			c0.4-0.9,1.1-1.9,1.1-2.8c0.1-3.7,2.5-6.5,3.8-9.6C43.5,228.2,44.3,226.4,44,224.4z"/>
		<path display="inline" fill="#D4B981" d="M69.3,383c-7.7,0-15.4,0-23.1,0c-0.5-0.7-0.6-1.4-0.1-2.1c1.2-1.5,1.3-3.5,2.1-4.9
			c1.7-2.6,1.7-5.7,3.6-8.2c1.5-2,2-4.7,3-7.1c2.6-6.3,4.8-12.9,7.9-19c7.7,0,15.4,0,23.1,0c0.3,0.6,0.2,1.2-0.2,1.5
			c-3.1,2-3.1,5.8-4.3,8.6c-1.8,4.2-3.6,8.5-5.1,12.9c-1.7,5-3.2,10.2-5.9,14.8C69.8,380.7,70.1,382,69.3,383z"/>
		<path display="inline" fill="#D8BE85" d="M44,383c-7,0-13.9,0-20.9,0c0-2.4,1.2-4.4,2.8-5.9c0.9-0.8,1.3-1.6,1.2-2.8
			c-0.1-1.8,0.5-3.4,1.1-5.1c2.3-6.4,4.7-12.8,7.2-19.1c1.1-2.7,2.3-5.3,3-8.2c7.3,0,14.7,0,22,0c-0.6,2.7-0.6,5.6-3,7.6
			c-0.4,0.3-0.8,0.7-0.8,1.4c0.1,4.2-2.3,7.7-3.5,11.5c-1.4,4.5-4.1,8.5-5.3,13.2C47.2,378.3,45.5,380.6,44,383z"/>
		<path display="inline" fill="#DCC389" d="M17.5,341.9c6.2,0,12.5,0,18.7,0c0.7,0.9,0.6,2,0,2.8c-2.2,3.5-2.1,8-5.3,11
			c0.2,3-2.8,5.1-2.5,8.2c0.1,0.5-0.1,1.1-0.4,1.6c-2.3,3.4-2.5,7.8-5.5,10.9c-0.6,0.6-0.6,1.5-0.5,2.3c0.3,2.1-0.4,3.6-2.5,4.3
			c-3.9,0-7.7,0-11.6,0.1c-1.3,0-1.7-0.4-1.7-1.7c0.1-4.4,0.1-8.8,0.1-13.2c1.6-6.3,4.3-12.1,6.8-18c0.8-2.1,1.8-4.2,2.4-6.4
			C16.1,342.9,16.6,342.2,17.5,341.9z"/>
		<path display="inline" fill="#DCC389" d="M-18.3,217.7c0.2-4.3,0.9-8.4,3.7-11.9c0.2-0.2,0.4-0.5,0.3-0.7c-1.3-3.3,1.6-4.8,3-7
			c0.8-1.2,0.4-2.7,0.9-4c0.9-2.5,2-5.1,2.5-7.8c0.5-2.9,2.6-5.1,4.1-7.6c0.4-0.7,0-1.8,1-2.2c2.9,0,5.9,0,8.8,0
			c0.5,2.7-0.7,5-2,7.1c-1.3,2.1-2.6,4.2-3,6.6c-0.8,4-2.8,7.5-4.5,11.1c-1,2.2-1.8,4.5-2.6,6.8c-1,2.9-3,5.5-3.4,8.6
			c-0.1,0.5-0.5,0.7-1,0.9C-13.1,217.7-15.7,217.7-18.3,217.7z"/>
		<path display="inline" fill="#E4CB91" d="M23.6,176.6c-0.9,0.7-0.5,2.1-1.6,2.7c-1.3,2.5-2,5.4-3.4,7.9c-2.3,4.2-3.1,9.1-6,13
			c-0.7,1.3-1.2,2.7-0.1,4c0.7,0.8,0.1,1.6-0.2,2c-2.6,3.4-3,7.5-4.4,11.3c-0.2,0.7-0.7,1-1.3,1.4c0-1.2-0.9-1.1-1.7-1.1
			c-2.2,0-4.5-0.1-6.7-0.1c-1.6-0.7-0.9-2.1-0.6-3.1c1.4-4.5,3.4-8.7,5.1-13.1c2.4-6.1,4.6-12.4,7.2-18.4c1.1-2.5,1.8-5.4,4.8-6.6
			C17.7,176.6,20.7,176.6,23.6,176.6z"/>
		<path display="inline" fill="#E0C78D" d="M14.8,176.6c-2.9,3.4-4.2,7.7-5.8,11.7c-2.5,6.3-4.7,12.6-7.3,18.9
			c-1.3,3.2-2.5,6.3-3.7,9.5c-0.1,0.3,0.2,0.7,0.3,1c-2.9,0-5.9,0-8.8,0c-0.5-1.9,1.4-3.6,0.4-5.5c-0.1-0.1,0.1-0.5,0.1-0.5
			c3.4,0.7,1.8-2.6,2.7-3.8c1-1.4,2.5-3.3,2.2-4.9c-0.4-2.7,1.7-3.9,2.5-5.8c1-2.4,3-4.6,1.9-7.5c-0.1-0.2-0.1-0.4,0-0.5
			c0.7-1.4,0.8-1.9,0.3-2.9c1.7,0.5,1.7-1.3,2-1.5c3.3-1.9,2-6,4.4-8.3C8.9,176.6,11.8,176.6,14.8,176.6z"/>
		<path display="inline" fill="#DCC389" d="M47.7,267.9c0,10.3,0,20.5,0.1,30.8c0,1.3-0.3,1.8-1.7,1.7c-4-0.1-8.1-0.1-12.1-0.1
			c-0.6-2.6,0.6-4.8,1.6-6.9c1.3-2.6,2.1-5.4,3.2-8c2.4-5.7,4.5-11.4,6.9-17.1C46.2,267.4,46.8,266.6,47.7,267.9z"/>
		<path display="inline" fill="#E2C990" d="M44,224.4c1,0.5,1.6,0.5,1,2.4c-0.7,2.5-2.2,4.7-3.1,7.2c-0.7,2.2-1.6,4.5-2.4,6.8
			c-1.2,3.3-3.3,6.3-3.8,9.8c-0.2,1.1-1.2,1.2-1.3,2.2c-0.4,3.4-3.3,5.9-3.1,9.5c-2.9,0.7-2.6,3.7-2.9,5.3c-0.7,3.4-3.2,5.8-3.7,9.2
			c-0.2,1.7-1.8,4-2,5.4c-0.5,3.6-3.6,5.9-3.8,9.7c-0.1,1.8-0.8,4.9-2.9,6.6c-0.4,0.3-0.4,1.2-0.6,1.8c-0.7,0-1.5,0-2.2,0
			c2.3-6,4-12.1,6.8-17.9c0.9-1.9,1.6-3.9,3.1-5.7c0.7-0.9,1.2-2.8,1.3-4.4c0.2-2.1,0.6-4.1,2.4-5.6c0.3-0.3,0.8-0.7,0.8-1
			c-0.4-4.4,2.3-7.7,3.8-11.4c0.8-2,1.1-4.2,1.5-6.3c0.3-1.6,1.6-2.8,2.4-3.8c2.6-2.9,2.7-6.4,3.5-9.8c0.3-1.4,1.3-2.6,2-3.4
			c1.4-1.4,1.4-3,1.1-4.2C41.3,224.5,42.4,224.5,44,224.4z"/>
		<path display="inline" fill="#DAC188" d="M19.7,383c1.1-1.5,2.5-2.8,1-5c-0.3-0.5,0-2.4,1-2.5c1.5-0.3,2.1-1.7,2.1-2.4
			c0.3-4.3,4.8-7.2,3.9-11.8c-0.2-0.7,0.5-1.1,0.9-1.6c0.4-0.4,1.1-0.8,1.1-1.2c-0.2-4.7,4.8-7.5,4.4-12.4c0-0.6,1.7-2.5,2.1-4.1
			c0.7,0,1.5,0,2.2,0c1.5,2.7-0.4,4.7-1.3,6.9c-0.9,2.2-2.3,4.3-2.7,6.6c-0.3,1.4-0.8,2.6-1.4,3.7c-1.2,2.3-1.9,4.6-2.4,7.1
			c-0.5,2.1-2.2,3.9-2.4,6.2c-0.1,0.9-1,1.8,0.2,2.7c0.5,0.4,0.2,1.2-0.3,1.4c-3,1.2-3,4.7-5.2,6.5C22,383,20.8,383,19.7,383z"/>
		<path display="inline" fill="#DFC68C" d="M17.5,341.9c-0.3,3-3.1,5.1-2.8,8.3c0,0.4-1,0.9-1.1,1.4c-0.8,3.3-2.3,6.4-3.5,9.5
			c-1,2.3-1.1,5.4-3.5,7.1c0-8.3,0-16.5-0.1-24.8c0-1.3,0.4-1.8,1.7-1.7C11.3,341.9,14.4,341.8,17.5,341.9z"/>
		<path display="inline" fill="#D6BC84" d="M44,383c-0.3-1.4,0.5-2.5,0.9-3.7c0.6-2,3.9-3.3,1.8-6.2c-0.4-0.6,0.4-1,1-1.3
			c1.4-0.6,1.7-1.8,1-3c-0.8-1.3-0.4-2,1-1.7c1.3,0.3,1.2-0.2,1.1-1.1c-0.3-1.9,0.4-3.3,1.9-4.3c0.5-0.3,0.2-0.8,0.3-1.2
			c0.2-1.4-0.3-3,1.4-3.8c0.3-0.1,0.2-1,0.3-1.5c0.3-1.9,1.6-3.7,0.8-5.8c-0.1-0.3,0.7-0.6,1.3-0.8c1-0.3,1.8-0.9,1.7-2.1
			c-0.2-1.9,0.8-3.3,2-4.6c0.7,0,1.5,0,2.2,0c0.4,0.7,0.9,1.1,0.3,2.2c-1.4,2.5-2,5.4-3.2,7.8c-1.4,3-2.6,6.2-3.9,9.3
			c-1,2.3-2.8,4.4-2.5,7.2c0.1,0.5-0.2,0.7-0.6,0.7c-2.1,0.3-1.7,1.8-1.8,3.2c0,1.1,0.4,2.5-1.4,2.7c-0.3,0-0.8,0.6-0.7,0.7
			c1.3,3.3-2.1,4.8-2.8,7.3C45.5,383,44.7,383,44,383z"/>
		<path display="inline" fill="#D3B780" d="M69.3,383c-0.8-1.7-0.5-3.2,0.8-4.2c0.1-0.1,0.3-0.2,0.4-0.3c-2-2.5,1.3-3.2,1.7-5
			c0.3-1.6,1.9-2.9,0.7-4.8c-0.2-0.3-0.2-1.1,0.3-1.2c2.6-0.4,1.7-2.8,2.5-4.2c1.2-1.9,0.9-4.1,1.5-6.2c0.2-0.7,0.6-0.8,1.1-0.9
			c0.8-0.2,1.6-1,1.4-1.5c-1.3-3.4,2.8-5,2.6-8.1c-0.1-2.3,2.4-3.1,3.4-4.9c0.7,0,1.5,0,2.2,0c-2.1,4.8-4.2,9.6-6,14.5
			c-1.4,3.6-3.2,7-4.4,10.6c-1.8,5.5-4.4,10.6-6.1,16.1C70.8,383,70.1,383,69.3,383z"/>
		<path display="inline" fill="#DEC68C" d="M47.7,267.9c-0.4-0.2-1.1-0.5-1.2,0.1c-0.4,3.5-2.7,6.3-3.5,9.7c-0.7,3-2.2,5.7-3.2,8.5
			c-1,2.6-1.9,5.5-3.3,8c-1.1,1.9-1.7,4.1-2.5,6.1c-0.7,0-1.5,0-2.2,0c-0.9-1.7,0.4-3.5-0.1-5.3c0-0.1,0.1-0.3,0.2-0.5
			c3-3.8,3-3.8,3.6-8.6c0-0.3,0.2-0.8,0.4-0.9c2.4-1.3,3.1-3.7,3.8-6.1c0.7-2.3,1.4-4.6,1.3-7.1c0-0.3,0-0.5,0-0.8
			c0.4-1.1,0.7-2.2,1.1-3.3c1.3-0.4,0.4,1.6,1.8,1.3c-0.9-1.8,1.8-3.7-0.3-5.6c0,0,0-0.2,0-0.3c1.7-0.4,2.7-1.8,3.9-3
			C47.7,262.8,47.7,265.4,47.7,267.9z"/>
		<path display="inline" fill="#E6CE93" d="M36.3,199.1c3.9,1,0.3,2.9,0.1,3.9c-0.6,2.8-2.7,5.2-2.9,8.3c0,1-0.9,1.7-1.3,2.1
			c-1.4,1.7-0.5,4.7-3.2,5.6c-2.5-1.5-0.5-3.5-0.1-5c0.5-2,1.6-3.9,2.5-5.8c1.3-2.8,3.6-5.2,3.9-8.5C35.4,199.5,36,199.3,36.3,199.1
			z"/>
		<path display="inline" fill="#E6CD93" d="M12.6,200.2c1.1-3.9,2.3-7.7,4.3-11.3c1.1-2.2,2.6-4.5,2.9-7c0.2-1.7,0.8-2.3,2.2-2.6
			c0.4,1,0.2,1.9-0.2,2.9c-2.3,5.6-4.5,11.1-6.6,16.8c-0.5,1.3-2.8,1.3-1.8,3.8C12.3,201.6,12.7,200.8,12.6,200.2z"/>
	</g>
	<g id="vector">
		<linearGradient id="SVGID_1_" gradientUnits="userSpaceOnUse" x1="125.47" y1="288.7905" x2="278.2763" y2="288.7905">
			<stop  offset="0" style="stop-color:#B49668"/>
			<stop  offset="0.1675" style="stop-color:#C6A370"/>
			<stop  offset="0.4288" style="stop-color:#DCB379"/>
			<stop  offset="0.5964" style="stop-color:#E4B97D"/>
			<stop  offset="0.7448" style="stop-color:#D5B47C"/>
			<stop  offset="0.8652" style="stop-color:#CFB27B"/>
			<stop  offset="1" style="stop-color:#CB9966"/>
		</linearGradient>
		<polyline fill="none" stroke="url(#SVGID_1_)" stroke-width="41" stroke-miterlimit="10" points="257.8,275.9 257.8,140.8 
			146.1,140.8 146,457.3 		"/>
		<linearGradient id="SVGID_2_" gradientUnits="userSpaceOnUse" x1="8.875" y1="231.2939" x2="395.924" y2="231.2939">
			<stop  offset="0" style="stop-color:#B49668"/>
			<stop  offset="0.1675" style="stop-color:#C6A370"/>
			<stop  offset="0.4288" style="stop-color:#DCB379"/>
			<stop  offset="0.5964" style="stop-color:#E4B97D"/>
			<stop  offset="0.7448" style="stop-color:#D5B47C"/>
			<stop  offset="0.8652" style="stop-color:#CFB27B"/>
			<stop  offset="1" style="stop-color:#CB9966"/>
		</linearGradient>
		<polyline fill="none" stroke="url(#SVGID_2_)" stroke-width="41" stroke-miterlimit="10" points="229.3,366.5 375.4,366.5 
			375.4,25.5 30.8,25.5 29.4,457.5 		"/>
	</g>
	<g display="none">
		
			<text transform="matrix(1 0 0 1 53.9999 467.0188)" display="inline" fill="#CCA16D" font-family="'Montserrat-Black'" font-size="62.9187">P</text>
		
			<text transform="matrix(1 0 0 1 135.9198 467.0188)" display="inline" fill="#CCA16D" font-family="'Montserrat-Black'" font-size="62.9187">S</text>
		
			<text transform="matrix(1 0 0 1 212.4291 467.0188)" display="inline" fill="#CCA16D" font-family="'Montserrat-Black'" font-size="62.9187">&amp;</text>
		
			<text transform="matrix(1 0 0 1 296.4877 467.0188)" display="inline" fill="#CCA16D" font-family="'Montserrat-Black'" font-size="62.9187">A</text>
	</g>
</g>
</svg>
